<svg xmlns="http://www.w3.org/2000/svg" xmlns:xlink="http://www.w3.org/1999/xlink" width="100" height="40" viewBox="0 0 100 40">
  <defs>
    <clipPath id="clip-logo">
      <rect width="100" height="40"/>
    </clipPath>
  </defs>
  <g id="logo" clip-path="url(#clip-logo)">
    <path id="Path_1" data-name="Path 1" d="M19.087-.586A25.467,25.467,0,0,1,12.217.542Q7.046.542,4.285-2.4T1.523-10.84q0-5.391,2.8-8.386t7.852-3a25.975,25.975,0,0,1,6.885.981V-18.4a23.4,23.4,0,0,0-6.87-1.523,6.636,6.636,0,0,0-5.457,2.388A10.4,10.4,0,0,0,4.79-10.811,9.813,9.813,0,0,0,6.87-4.138a7.332,7.332,0,0,0,5.83,2.38A11.5,11.5,0,0,0,16.025-2.3V-9.36h3.062ZM24.913,0V-21.68h3.076V0ZM34.02,0V-21.68h5.9q3.926,0,5.64,1.326T47.277-16a6.688,6.688,0,0,1-2.344,5.42,9.833,9.833,0,0,1-6.5,1.963H37.067V0Zm3.047-10.942h1.245a6.386,6.386,0,0,0,4.233-1.26,4.4,4.4,0,0,0,1.494-3.56,3.181,3.181,0,0,0-1.172-2.783,6.941,6.941,0,0,0-3.911-.835h-1.89ZM62.038-8.291l-3.691-9.346L54.641-8.291ZM65.29,0,62.932-6.006H53.747L51.36,0H48.5l8.6-21.68h3.047L68.616,0Zm11.6,0V-9.053L69.652-21.68h3.516l5.625,9.785,6.064-9.785h2.856L79.964-9.111V0Z" transform="translate(5 31)" fill="#5fc590"/>
  </g>
</svg>
